<?xml version="1.0" standalone="no"?>
<!DOCTYPE svg PUBLIC "-//W3C//DTD SVG 20010904//EN"
 "http://www.w3.org/TR/2001/REC-SVG-20010904/DTD/svg10.dtd">
<svg version="1.0" xmlns="http://www.w3.org/2000/svg"
 width="581.000000pt" height="581.000000pt" viewBox="0 0 581.000000 581.000000"
 preserveAspectRatio="xMidYMid meet">

<g transform="translate(0.000000,581.000000) scale(0.100000,-0.100000)"
fill="#000000" stroke="none">
<path d="M2702 5000 c-60 -9 -101 -23 -217 -76 -57 -26 -87 -47 -205 -150
-181 -158 -237 -227 -302 -378 -48 -109 -86 -247 -94 -336 l-5 -65 27 65 c15
36 34 70 42 76 9 6 13 18 9 27 -3 9 -2 19 4 23 6 3 8 13 4 22 -3 8 -2 18 2 21
10 7 44 98 47 127 5 39 79 174 125 228 54 63 167 156 190 156 9 0 22 -9 29
-21 7 -11 18 -19 25 -16 6 2 25 -9 42 -25 l30 -28 -30 -25 c-16 -13 -36 -29
-43 -35 -7 -6 -10 -15 -7 -21 4 -5 -1 -9 -9 -9 -9 0 -16 -7 -16 -15 0 -17 -80
-101 -93 -97 -5 1 -6 -2 -2 -7 3 -6 -4 -15 -15 -21 -11 -6 -27 -24 -35 -40 -9
-17 -22 -30 -30 -30 -8 0 -15 -5 -15 -12 0 -6 -9 -21 -19 -32 -18 -20 -61
-134 -61 -163 0 -7 -4 -13 -9 -13 -5 0 -12 -13 -16 -29 -3 -16 -13 -35 -21
-42 -8 -6 -14 -20 -14 -30 0 -11 -3 -19 -8 -19 -4 0 -13 -13 -20 -30 -14 -31
-8 -55 10 -44 6 4 9 1 6 -7 -3 -8 -12 -13 -21 -13 -9 1 -13 -4 -10 -12 3 -8 1
-14 -5 -14 -5 0 -13 -12 -17 -27 -3 -16 -13 -35 -20 -43 -8 -9 -15 -36 -17
-60 -1 -25 -15 -70 -30 -100 -15 -30 -30 -74 -33 -97 -2 -23 -12 -60 -21 -83
-14 -36 -15 -47 -4 -81 7 -21 17 -39 22 -39 4 0 8 -11 8 -25 0 -14 -5 -25 -11
-25 -5 0 -7 -5 -4 -10 4 -6 10 -8 15 -5 19 12 17 -15 -6 -84 -18 -55 -24 -87
-20 -127 2 -30 0 -56 -5 -59 -5 -4 -9 -17 -9 -30 0 -13 -4 -27 -10 -30 -5 -3
-10 -15 -10 -26 0 -10 -4 -19 -10 -19 -6 0 -11 68 -13 168 -2 100 -3 87 -1
-33 2 -149 6 -215 19 -260 29 -105 168 -380 225 -445 13 -14 34 -43 48 -65 13
-22 45 -66 71 -97 l46 -57 -3 -93 c-1 -51 -5 -104 -7 -118 -11 -50 78 -162
202 -257 l76 -58 -70 -6 c-77 -7 -121 -26 -152 -65 -35 -45 -61 -130 -66 -222
-3 -48 -9 -105 -15 -127 -5 -22 -14 -62 -20 -88 -12 -53 -22 -75 -133 -287
-93 -177 -138 -289 -233 -579 -41 -124 -74 -226 -74 -228 0 -2 780 -3 1734 -3
1532 0 1735 2 1740 15 3 9 0 15 -10 15 -9 0 -12 -5 -8 -12 4 -6 3 -8 -4 -5
-11 8 7 57 21 57 5 0 6 4 3 9 -3 5 2 15 11 22 15 12 16 12 9 -6 -4 -11 -3 -16
1 -11 7 7 12 35 13 80 1 10 8 29 17 42 8 13 13 33 10 43 -3 12 1 22 10 25 10
4 13 14 9 29 -3 13 1 35 9 50 7 14 11 26 7 24 -4 -1 -7 3 -7 8 0 6 6 9 13 9 9
-2 10 1 2 11 -12 15 2 55 19 55 5 0 7 19 5 42 l-4 41 21 -21 c11 -12 25 -22
32 -22 7 0 3 8 -8 18 -27 22 -55 59 -37 48 6 -4 12 -3 12 3 0 5 18 0 40 -11
22 -12 40 -28 40 -35 0 -8 4 -12 9 -9 5 3 20 -12 35 -34 14 -22 31 -40 36 -40
6 0 10 -7 10 -16 0 -8 13 -20 29 -25 23 -8 29 -16 26 -35 -2 -18 2 -24 11 -20
8 3 14 -1 14 -10 0 -8 7 -17 15 -20 8 -4 15 -14 16 -23 0 -9 6 2 14 24 l13 40
2 -45 3 -45 7 50 c4 31 3 53 -3 57 -12 8 -19 218 -7 218 5 0 11 -21 13 -48 3
-43 3 -42 4 13 1 33 -2 80 -7 105 l-9 45 3 -52 c2 -29 -1 -53 -5 -53 -5 0 -9
12 -10 28 0 15 -2 36 -5 47 -2 11 -6 35 -10 53 -3 18 -10 35 -15 38 -5 3 -9
16 -9 29 0 13 -4 26 -9 29 -4 3 -11 24 -15 45 -5 30 -10 39 -21 35 -10 -4 -14
-1 -11 7 13 42 15 79 3 76 -6 -1 -13 10 -15 25 -2 19 -8 25 -18 21 -8 -3 -14
-1 -14 4 0 14 -80 98 -91 96 -5 -2 -9 2 -9 7 0 6 5 10 10 10 6 0 10 5 10 11 0
6 -7 9 -15 6 -8 -4 -17 -1 -21 5 -4 7 -3 8 4 4 7 -4 12 -5 12 -3 0 14 -113 76
-149 82 -23 4 -45 13 -48 21 -3 8 -16 14 -29 14 -13 0 -24 4 -24 9 0 4 -17 8
-38 8 -24 0 -54 10 -80 27 -23 14 -42 23 -42 20 0 -4 -7 -1 -15 6 -8 6 -24 13
-37 14 -13 2 -42 8 -64 15 -23 6 -49 8 -58 5 -9 -4 -18 0 -22 9 -3 9 -12 13
-21 10 -11 -4 -14 -2 -9 5 9 15 -20 46 -34 37 -5 -3 -10 0 -10 8 0 7 -15 26
-34 42 -19 16 -33 32 -30 36 2 4 -5 5 -16 2 -12 -3 -22 1 -26 10 -3 9 -19 19
-35 22 -16 4 -29 11 -29 16 0 25 -151 135 -170 124 -6 -4 -9 -1 -8 7 2 8 -6
13 -19 13 -13 0 -28 8 -35 17 -14 18 -125 64 -145 60 -7 -2 -13 2 -13 7 0 6
-11 22 -25 37 -14 15 -22 30 -19 33 4 3 9 0 11 -6 3 -7 9 -13 15 -13 6 0 3 9
-7 20 -10 11 -23 17 -29 13 -6 -3 -8 -3 -4 2 7 7 -93 131 -140 174 -15 13 -21
20 -14 16 7 -3 1 11 -13 32 -33 47 -41 55 -26 23 11 -24 11 -24 -3 -6 -9 11
-16 28 -16 38 0 11 -5 15 -15 12 -10 -4 -15 0 -15 11 0 10 5 14 13 9 7 -4 9
-3 4 2 -5 5 -12 9 -15 9 -17 1 -32 18 -32 36 0 12 4 17 11 13 22 -13 -11 34
-38 56 l-28 22 -6 -56 c-4 -30 -14 -68 -24 -83 -10 -15 -111 -120 -225 -233
-214 -211 -259 -264 -400 -460 -46 -63 -96 -131 -112 -150 -93 -111 -483 -678
-632 -918 -38 -62 -71 -112 -74 -112 -9 0 13 138 60 370 37 183 51 277 55 373
l6 128 36 29 c19 17 42 30 51 30 11 0 12 2 3 8 -9 5 9 20 52 43 36 18 65 36
65 39 0 5 -39 114 -77 215 -12 33 -12 41 -1 48 7 4 63 37 123 73 61 36 189
104 285 151 96 48 199 102 228 120 29 18 56 33 60 33 18 0 103 61 97 70 -3 5
0 7 8 4 8 -3 18 0 23 7 4 8 3 10 -4 5 -7 -4 -12 -3 -12 1 0 5 9 14 20 21 12 7
18 16 16 21 -8 13 23 70 45 84 10 6 19 16 19 21 0 6 -5 5 -12 -2 -25 -25 -28
-10 -4 19 23 27 24 32 10 46 -8 8 -18 13 -21 10 -3 -3 -12 1 -20 9 -8 8 -19
12 -24 8 -5 -3 -22 -7 -38 -9 -23 -3 -31 2 -42 23 -22 43 -22 48 0 24 l21 -24
-2 45 c-2 37 -7 48 -26 56 -30 14 -32 14 -25 -6 4 -11 3 -14 -5 -9 -7 4 -10
18 -6 34 l6 27 -20 -24 c-14 -17 -20 -20 -24 -10 -6 18 -2 110 7 130 3 9 5 20
4 25 -2 5 1 33 5 62 6 36 12 52 20 49 10 -4 12 7 8 42 -3 36 0 52 13 64 12 12
13 17 3 17 -11 0 -11 2 0 9 7 4 12 12 11 17 -4 21 2 28 11 14 8 -11 9 -7 5 15
-6 29 -6 29 9 11 9 -11 16 -16 16 -11 0 5 -7 16 -15 25 -11 12 -16 42 -18 94
-1 42 -5 76 -9 76 -5 0 -8 8 -8 18 0 14 2 15 10 2 8 -12 10 -11 10 7 0 12 -5
25 -11 29 -6 3 -8 17 -5 30 5 17 3 22 -8 18 -7 -3 -16 2 -20 12 -5 12 -2 15
10 10 11 -4 22 1 31 14 8 11 18 18 23 15 11 -7 40 5 40 16 0 4 -7 6 -15 3 -8
-4 -15 -1 -15 6 0 6 14 17 30 23 18 7 28 17 26 24 -4 9 4 13 23 13 41 0 77 37
78 83 1 20 -3 37 -8 37 -5 0 -9 -5 -9 -10 0 -7 -19 -9 -50 -6 -33 3 -49 1 -47
-7 3 -15 -121 -21 -139 -6 -7 6 -11 15 -8 20 3 5 -2 9 -10 9 -9 0 -16 4 -16
10 0 13 29 27 75 36 22 4 51 14 65 23 22 15 24 15 18 -1 -5 -11 0 -18 13 -21
15 -4 19 -2 15 10 -3 8 -6 21 -6 28 0 7 -19 20 -42 30 -69 27 -128 58 -128 67
0 14 44 9 80 -11 19 -10 51 -22 70 -26 31 -7 33 -6 21 8 -7 9 -33 29 -57 44
-34 22 -42 32 -38 48 14 45 70 87 86 64 7 -10 8 -7 4 11 -3 14 -6 33 -6 43 0
9 -6 17 -13 17 -7 0 -17 15 -22 33 -7 21 -17 32 -30 33 -11 1 -28 2 -38 3 -13
1 -17 6 -12 20 4 14 0 21 -15 26 -20 6 -28 25 -10 25 11 0 50 36 50 46 0 3 -9
3 -19 -1 -16 -5 -18 -2 -14 17 3 13 13 29 21 36 9 6 12 12 6 12 -13 0 -14 53
-1 69 10 12 9 13 -3 6 -12 -7 -12 -5 1 11 9 10 14 25 12 31 -3 7 1 15 9 18 20
8 17 114 -4 129 -8 6 -13 17 -10 25 2 8 0 11 -5 8 -15 -10 -63 42 -63 68 0 13
-8 28 -17 34 -10 5 -18 22 -19 38 -1 19 -6 28 -17 27 -10 -1 -14 3 -10 9 11
18 10 78 -2 73 -5 -2 -9 -9 -7 -15 1 -7 -2 -9 -8 -6 -6 4 -9 13 -6 20 2 7 -1
12 -7 11 -7 0 -13 3 -14 7 -1 5 -10 16 -20 24 -15 12 -15 14 -1 9 9 -2 18 1
21 8 3 8 26 11 72 9 36 -2 64 0 62 4 -5 8 32 11 137 12 47 0 62 -4 80 -22 12
-12 34 -31 49 -42 15 -11 27 -25 27 -32 0 -7 3 -13 8 -13 14 0 72 -59 72 -73
0 -8 7 -20 15 -27 8 -7 14 -22 14 -34 0 -11 4 -40 9 -62 5 -23 7 -56 4 -73 -2
-19 0 -31 7 -31 6 0 12 6 13 13 1 6 4 -13 8 -43 3 -30 9 -48 12 -40 3 8 9 24
14 35 l7 20 4 -20 c3 -11 12 -25 20 -32 8 -6 13 -16 10 -20 -10 -15 10 -36 28
-30 9 4 13 12 9 18 -5 8 -3 9 5 5 7 -5 10 -14 7 -22 -3 -8 5 -21 18 -29 16
-11 22 -23 20 -40 -1 -16 3 -25 12 -25 15 0 19 -12 7 -23 -3 -4 -13 -1 -21 5
-20 17 -42 19 -35 2 3 -8 9 -11 14 -8 5 3 9 0 9 -5 0 -6 9 -11 19 -11 12 0 21
-10 25 -27 4 -16 9 -36 12 -46 5 -15 1 -17 -22 -11 -24 6 -26 5 -22 -14 3 -12
1 -23 -6 -26 -6 -2 -3 -5 8 -5 13 -1 16 -6 11 -18 -16 -42 -15 -82 2 -92 16
-9 16 -12 3 -22 -11 -8 -12 -12 -2 -16 6 -2 12 -16 12 -30 0 -22 2 -23 15 -9
8 8 15 29 15 47 0 18 3 29 7 26 13 -13 3 -88 -18 -128 -11 -23 -18 -44 -15
-47 3 -3 6 0 6 6 0 6 15 19 33 28 43 22 43 22 23 37 -16 12 -16 18 -5 58 15
55 16 424 1 489 -6 25 -15 62 -20 82 -11 44 -86 194 -107 215 -8 8 -15 18 -15
22 0 11 -166 179 -205 208 -195 147 -283 191 -440 219 -85 15 -321 17 -413 4z
m328 -340 l20 -20 -20 0 c-11 0 -20 2 -20 4 0 2 -3 11 -6 20 -8 22 2 20 26 -4z
m152 -272 c-7 -7 -12 -8 -12 -2 0 6 3 14 7 17 3 4 9 5 12 2 2 -3 -1 -11 -7
-17z m58 -32 c0 -3 -4 -8 -10 -11 -5 -3 -10 -1 -10 4 0 6 5 11 10 11 6 0 10
-2 10 -4z m460 -52 c0 -2 -7 -4 -15 -4 -8 0 -15 4 -15 10 0 5 7 7 15 4 8 -4
15 -8 15 -10z m-430 -62 c0 -10 -7 -19 -15 -19 -18 0 -19 4 -2 22 16 19 17 18
17 -3z m550 -62 c0 -5 -2 -10 -4 -10 -3 0 -8 5 -11 10 -3 6 -1 10 4 10 6 0 11
-4 11 -10z m-1790 -218 c0 -5 -7 -9 -15 -9 -8 0 -12 4 -9 9 3 4 9 8 15 8 5 0
9 -4 9 -8z m1155 -11 c-4 -14 0 -21 15 -26 11 -3 20 -11 20 -16 0 -14 -27 -11
-44 7 -9 8 -16 12 -16 8 0 -4 -3 -5 -6 -2 -8 9 14 48 27 48 6 0 8 -9 4 -19z
m705 -31 c0 -11 -2 -20 -4 -20 -2 0 -6 9 -9 20 -3 11 -1 20 4 20 5 0 9 -9 9
-20z m-30 6 c0 -3 -4 -8 -10 -11 -5 -3 -10 -1 -10 4 0 6 5 11 10 11 6 0 10 -2
10 -4z m0 -60 c0 -3 -4 -8 -10 -11 -5 -3 -10 -1 -10 4 0 6 5 11 10 11 6 0 10
-2 10 -4z m-1885 -136 c-3 -5 -11 -10 -16 -10 -6 0 -7 5 -4 10 3 6 11 10 16
10 6 0 7 -4 4 -10z m-16 -34 c9 -10 8 -16 -4 -26 -13 -11 -15 -8 -15 14 0 30
3 32 19 12z m159 -88 c0 -13 3 -33 7 -45 6 -19 4 -23 -13 -23 -12 0 -33 11
-48 23 l-27 24 21 21 c29 29 60 29 60 0z m917 -53 c0 -48 -12 -57 -37 -27 -31
35 -30 42 4 57 18 8 33 14 33 15 0 0 0 -20 0 -45z m222 5 c2 0 3 -4 3 -10 0
-8 -70 -50 -85 -50 -10 0 -5 56 6 67 7 7 21 8 42 2 18 -5 33 -9 34 -9z m-528
-144 c9 -11 7 -15 -8 -19 -22 -5 -31 0 -31 20 0 17 24 17 39 -1z m-51 -84 c13
11 14 9 9 -12 -4 -14 -4 -19 -1 -12 8 17 34 15 34 -2 0 -8 -9 -21 -21 -29 -18
-13 -19 -18 -8 -35 10 -16 22 -20 53 -18 25 2 50 -3 64 -12 20 -13 25 -13 32
-2 7 11 11 8 19 -13 15 -39 14 -70 -3 -93 -13 -17 -17 -18 -38 -5 -13 8 -36
21 -53 29 -16 8 -40 24 -53 35 -16 15 -25 18 -33 10 -8 -8 -18 -8 -36 0 -19 9
-26 8 -34 -4 -5 -8 -7 -20 -4 -27 3 -9 -1 -11 -14 -7 -13 4 -23 0 -29 -11 -11
-20 -30 -11 -42 20 -6 16 -3 25 13 38 l22 17 -21 -5 c-12 -3 -25 -1 -28 5 -4
7 1 11 13 11 17 0 21 6 21 30 0 20 -5 30 -15 30 -8 0 -15 -5 -15 -12 0 -6 -2
-9 -5 -6 -8 8 6 39 15 33 5 -3 16 -2 26 2 16 6 16 7 -2 14 -14 6 -15 8 -3 8 9
1 24 10 34 21 16 18 20 18 53 5 28 -12 38 -13 50 -3z m-248 -43 c0 -6 9 -9 20
-6 11 3 22 2 25 -3 3 -4 -8 -10 -23 -13 -15 -3 -28 -1 -30 4 -2 5 -11 9 -20 9
-15 0 -15 2 -2 10 20 13 30 12 30 -1z m-133 -36 c2 -6 -4 -13 -13 -17 -21 -8
-26 -3 -18 18 7 18 25 17 31 -1z m363 -103 c0 -5 -7 -10 -16 -10 -8 0 -12 5
-9 10 3 6 10 10 16 10 5 0 9 -4 9 -10z m-100 -72 c0 -16 -3 -19 -11 -11 -6 6
-8 16 -5 22 11 17 16 13 16 -11z m310 -53 c0 -8 -7 -15 -16 -15 -14 0 -14 3
-4 15 7 8 14 15 16 15 2 0 4 -7 4 -15z m-107 -52 c4 -19 2 -33 -3 -33 -10 0
-14 14 -11 38 1 6 -5 12 -14 12 -18 0 -20 16 -2 23 17 6 23 -3 30 -40z m51 5
c-6 -20 -5 -21 9 -10 12 10 21 11 36 2 24 -12 28 -30 7 -30 -8 0 -17 -7 -20
-16 -10 -25 -52 13 -50 45 2 32 2 31 15 31 6 0 8 -9 3 -22z m-1011 -81 c3 -8
1 -20 -4 -28 -6 -10 -9 -7 -9 14 0 29 5 35 13 14z m1467 3 c0 -5 -4 -10 -10
-10 -5 0 -10 5 -10 10 0 6 5 10 10 10 6 0 10 -4 10 -10z m-387 -83 c63 -56 32
-61 -88 -16 -63 23 -72 29 -40 25 31 -4 80 8 91 23 0 1 17 -14 37 -32z m277
-55 c0 -22 -4 -31 -11 -26 -7 4 -9 0 -5 -14 4 -11 2 -23 -4 -27 -6 -4 -10 19
-10 66 0 66 1 71 15 53 8 -10 15 -34 15 -52z m-1290 34 c0 -3 -4 -8 -10 -11
-5 -3 -10 -1 -10 4 0 6 5 11 10 11 6 0 10 -2 10 -4z m982 -82 c10 -3 15 -11
11 -20 -3 -8 1 -14 10 -14 8 0 14 -8 13 -17 -1 -22 -30 -64 -42 -62 -21 4 -34
-2 -34 -15 0 -24 -31 -27 -64 -7 -23 14 -49 18 -103 17 -41 -1 -65 2 -57 7 21
12 6 29 -24 27 -56 -4 -64 -1 -60 23 3 19 9 22 52 23 28 0 52 6 54 12 2 7 20
13 40 13 21 1 51 4 67 8 38 9 115 12 137 5z m-413 -48 c-2 -3 -16 -7 -32 -11
-34 -9 -38 15 -4 38 20 14 23 13 31 -4 5 -11 7 -21 5 -23z m-121 14 c-7 -10
-14 -18 -15 -16 -6 6 9 36 18 36 5 0 4 -9 -3 -20z m-388 -110 c0 -5 -4 -10
-10 -10 -5 0 -10 5 -10 10 0 6 5 10 10 10 6 0 10 -4 10 -10z m1250 -120 c0
-11 0 -23 1 -27 0 -5 -7 -9 -15 -11 -11 -2 -14 4 -12 25 4 34 4 33 16 33 6 0
10 -9 10 -20z m-60 -11 c3 7 7 -2 7 -19 0 -16 -4 -30 -9 -30 -4 0 -8 6 -8 14
0 8 -2 20 -3 28 -2 7 -2 9 1 4 2 -4 8 -3 12 3z m-1097 -30 c4 -16 3 -18 -9 -8
-16 13 -19 29 -5 29 5 0 11 -9 14 -21z m1137 -19 c0 -5 7 -10 16 -10 8 0 12
-5 9 -10 -4 -7 -13 -7 -26 0 -20 11 -26 30 -9 30 6 0 10 -4 10 -10z m-55 -57
c16 -12 16 -14 3 -10 -10 3 -20 1 -24 -5 -4 -7 -9 -6 -15 3 -20 32 2 39 36 12z
m-88 -45 c-3 -8 -6 -5 -6 6 -1 11 2 17 5 13 3 -3 4 -12 1 -19z m65 -10 c-7 -7
-12 -8 -12 -2 0 14 12 26 19 19 2 -3 -1 -11 -7 -17z m-25 -20 c-3 -8 -6 -5 -6
6 -1 11 2 17 5 13 3 -3 4 -12 1 -19z m-727 -938 c0 -5 -2 -10 -4 -10 -3 0 -8
5 -11 10 -3 6 -1 10 4 10 6 0 11 -4 11 -10z m2950 -810 c0 -5 -2 -10 -4 -10
-3 0 -8 5 -11 10 -3 6 -1 10 4 10 6 0 11 -4 11 -10z m-99 -367 c-12 -20 -14
-14 -5 12 4 9 9 14 11 11 3 -2 0 -13 -6 -23z"/>
<path d="M2515 2660 c-3 -5 1 -10 10 -10 9 0 13 5 10 10 -3 6 -8 10 -10 10 -2
0 -7 -4 -10 -10z"/>
<path d="M3670 4200 c0 -5 5 -10 10 -10 6 0 10 5 10 10 0 6 -4 10 -10 10 -5 0
-10 -4 -10 -10z"/>
<path d="M3747 4147 c-8 -21 15 -35 50 -28 5 1 -36 41 -42 41 -2 0 -5 -6 -8
-13z"/>
<path d="M3820 4020 c0 -5 5 -10 11 -10 5 0 7 5 4 10 -3 6 -8 10 -11 10 -2 0
-4 -4 -4 -10z"/>
<path d="M1872 3970 c0 -14 2 -19 5 -12 2 6 2 18 0 25 -3 6 -5 1 -5 -13z"/>
<path d="M3800 3753 c0 -4 5 -15 10 -23 8 -13 10 -13 10 2 0 9 -4 20 -10 23
-5 3 -10 3 -10 -2z"/>
<path d="M3933 3642 c-16 -10 -30 -51 -28 -82 2 -21 21 -92 42 -160 3 -9 13 6
23 35 18 49 26 167 14 199 -6 17 -31 21 -51 8z"/>
<path d="M3810 3454 c-11 -27 -10 -56 5 -129 4 -21 -2 -45 -19 -79 -25 -51
-25 -76 1 -76 21 0 63 46 63 69 0 11 14 27 35 40 31 18 35 25 35 60 0 31 -6
45 -31 68 -17 15 -42 39 -55 52 l-23 25 -11 -30z"/>
<path d="M3320 2870 c0 -5 5 -10 11 -10 5 0 7 5 4 10 -3 6 -8 10 -11 10 -2 0
-4 -4 -4 -10z"/>
<path d="M3267 2789 c-7 -28 -6 -31 12 -20 9 6 10 14 4 26 -9 15 -11 15 -16
-6z"/>
<path d="M1945 1720 c-82 -26 -181 -59 -220 -74 -38 -15 -121 -46 -184 -67
-62 -22 -137 -52 -165 -66 -28 -14 -114 -45 -191 -68 -77 -23 -168 -54 -202
-68 -34 -14 -77 -28 -95 -32 -128 -28 -299 -196 -383 -376 -13 -30 -25 -69
-25 -88 0 -25 -14 -55 -49 -105 -27 -39 -80 -134 -119 -211 -38 -77 -79 -148
-90 -159 -29 -26 -45 -79 -37 -125 5 -32 3 -43 -13 -59 -27 -27 -42 -56 -42
-81 0 -14 -8 -23 -25 -27 -13 -3 -27 -15 -30 -25 -4 -11 -17 -31 -31 -44 -13
-13 -24 -29 -24 -35 0 -7 254 -10 814 -10 l813 0 27 138 c73 371 173 710 281
958 31 71 75 176 97 234 39 101 40 107 36 200 -3 52 -1 126 4 164 4 38 7 70 5
72 -1 1 -69 -20 -152 -46z"/>
<path d="M5420 1125 c0 -3 12 -18 26 -33 l27 -27 -22 33 c-21 30 -31 39 -31
27z"/>
<path d="M5612 730 c0 -14 2 -19 5 -12 2 6 2 18 0 25 -3 6 -5 1 -5 -13z"/>
<path d="M5631 414 c0 -11 3 -14 6 -6 3 7 2 16 -1 19 -3 4 -6 -2 -5 -13z"/>
</g>
</svg>
